<?xml version="1.0" encoding="UTF-8" standalone="no"?>
<!DOCTYPE svg PUBLIC "-//W3C//DTD SVG 1.1//EN" "http://www.w3.org/Graphics/SVG/1.1/DTD/svg11.dtd">
<svg version="1.1" xmlns="http://www.w3.org/2000/svg" xmlns:xlink="http://www.w3.org/1999/xlink" preserveAspectRatio="xMidYMid meet" viewBox="0 0 640 640" width="640" height="640"><defs><path d="M631.76 315.4C631.76 488.78 491.2 629.34 317.82 629.34C144.43 629.34 3.87 488.78 3.87 315.4C3.87 142.01 144.43 1.45 317.82 1.45C491.2 1.45 631.76 142.01 631.76 315.4" id="bbw3vFsb2"></path><path d="M318.35 630.74C395.6 633.14 461.44 594.93 461.44 594.92C461.44 550.25 410.35 504.29 325.91 504.29C241.47 504.29 173.76 550.25 173.76 594.92C173.76 594.95 228.11 631.34 318.35 630.74Z" id="blA0lapzs"></path><path d="M372.95 533.73C372.95 560.02 351.64 581.33 325.35 581.33C299.07 581.33 277.76 560.02 277.76 533.73C277.76 507.45 299.07 486.14 325.35 486.14C351.64 486.14 372.95 507.45 372.95 533.73" id="a2k6pT3B4P"></path><path d="M363.8 506.37C363.8 527.61 346.58 544.82 325.36 544.82C304.12 544.82 286.91 527.61 286.91 506.37C286.91 496.33 286.91 416 286.91 405.96C286.91 384.73 304.12 367.52 325.36 367.52C346.58 367.52 363.8 384.73 363.8 405.96C363.8 426.04 363.8 486.29 363.8 506.37Z" id="c2GffMdyTb"></path><path d="M136.54 351.6C136.54 368.84 150.05 382.81 166.7 382.81C183.36 382.81 196.87 368.84 196.87 351.6C196.87 334.36 183.36 320.39 166.7 320.39C150.05 320.39 136.54 334.36 136.54 351.6" id="m2VEE282v8"></path><path d="M457.44 191.17C457.44 310.6 457.44 376.95 457.44 390.22C457.44 418.31 444.17 443.92 422.36 463.29C397.28 485.57 365.85 486.14 325.35 486.14C287.52 486.14 248.31 487.35 223.51 467.56C198.7 447.77 183.37 420.42 183.37 390.22C183.37 370.32 183.37 211.08 183.37 191.17C183.37 130.78 244.72 81.81 320.4 81.81C358.23 81.81 392.5 94.05 417.29 113.85C442.1 133.64 457.44 160.97 457.44 191.17" id="a49T7ZCDr6"></path><path d="M170.07 354.83C170.07 360.78 174.67 365.61 180.35 365.61C186.03 365.61 190.64 360.78 190.64 354.83C190.64 348.89 186.03 344.06 180.35 344.06C174.67 344.06 170.07 348.89 170.07 354.83" id="nQdcOn3vv"></path><path d="" id="aGkSBOWR6"></path><path d="M467.72 105.24C467.72 164.63 467.72 197.62 467.72 204.22C462.05 204.22 456.9 201.92 453.17 198.2C449.46 194.47 447.15 189.33 447.15 183.65C447.15 177.87 447.15 131.59 447.15 125.81C447.15 114.44 456.36 105.24 467.72 105.24" id="j2lQLoQIT0"></path><path d="M218.33 292.62L255.98 292.62L298.86 306.49L298.86 284.04L222.25 265.15L218.33 292.62Z" id="a4B7ER6tCw"></path><path d="M407.18 161.19C406.48 163.11 404.36 164.1 402.44 163.41C399.58 162.37 376.68 154.05 373.82 153.01C371.9 152.31 370.91 150.19 371.61 148.27C372.31 146.35 374.43 145.36 376.35 146.06C379.21 147.1 402.1 155.41 404.97 156.45C406.89 157.15 407.88 159.27 407.18 161.19" id="b1serKr6yE"></path><path d="M270.88 160.43C271.23 162.44 269.87 164.36 267.86 164.7C264.86 165.22 240.85 169.33 237.85 169.85C235.84 170.19 233.92 168.84 233.58 166.83C233.23 164.81 234.59 162.9 236.6 162.55C239.6 162.04 263.61 157.92 266.61 157.41C268.62 157.06 270.54 158.42 270.88 160.43" id="a1m1k9YFYs"></path><path d="M395.73 212.74C435.81 233.23 490.09 225.06 516.96 194.51C502.44 187.09 386.32 127.74 371.81 120.32C344.93 150.88 355.65 192.26 395.73 212.74" id="chaDg47I"></path><path d="M255.44 321.59C281.13 321.71 290.04 335 291.39 336.83C292.74 338.67 290.23 316.15 260.86 308.95C241.27 304.15 227.6 313.44 219.85 336.83C226.45 326.59 238.31 321.51 255.44 321.59Z" id="d823TQbJSG"></path><path d="M397.88 192.78C409.97 157.16 381.91 120.82 335.19 111.6C330.81 124.49 295.77 227.67 291.39 240.57C338.11 249.79 385.78 228.39 397.88 192.78" id="a6oLL5tEef"></path><path d="" id="b4n1yrmA5"></path><path d="M428.97 292.62L391.32 292.62L348.43 306.49L348.43 284.04L425.04 265.15L428.97 292.62Z" id="c24lcPpXH"></path><path d="M469.82 195.64C469.83 195.14 469.85 194.63 469.85 194.12C469.85 128.56 399.88 75.22 313.89 75.22C227.89 75.22 157.93 128.56 157.93 194.12C157.93 194.63 157.95 195.14 157.96 195.64C220.33 195.64 407.45 195.64 469.82 195.64Z" id="fuUg4jftF"></path><path d="M301.05 390.62L313.89 408.1L291.39 392.78L309.79 368.14L301.05 390.62Z" id="e3YbPDTRo"></path><path d="M224.85 219.84C291.52 226.89 353.06 191.41 362.31 140.58C338.17 138.03 145.03 117.6 120.89 115.05C111.64 165.87 158.19 212.79 224.85 219.84" id="a1CGdHru4f"></path><path d="M367.99 439.32C367.94 446.32 363.57 452.71 356.36 457.61C347.59 463.57 334.64 467.32 320.2 467.29C307.47 467.26 295.92 464.28 287.41 459.45C278.36 454.31 272.76 447.08 272.81 439.09C272.83 436.97 273.25 434.92 274.01 432.94C283.3 432.96 357.59 433.14 366.88 433.17C367.62 435.15 368.01 437.21 367.99 439.32" id="b6693ioI6o"></path><path d="M395.34 321.59C369.65 321.71 360.74 335 359.39 336.83C358.04 338.67 360.55 316.15 389.92 308.95C409.51 304.15 423.18 313.44 430.93 336.83C424.33 326.59 412.47 321.51 395.34 321.59Z" id="dgAmH4VwL"></path><path d="M355.43 457.73C346.66 463.69 333.71 467.45 319.27 467.41C306.54 467.38 294.99 464.4 286.48 459.57C290.16 450.16 304.48 443.15 321.54 443.2C337.36 443.23 350.74 449.32 355.43 457.73" id="b2jLhtJklT"></path><path d="M360.36 436.19L360.36 436.19L359.11 436.19L360.36 436.19Z" id="a1VSxkKoG5"></path><path d="M500.01 351.6C500.01 368.84 486.5 382.81 469.85 382.81C453.19 382.81 439.68 368.84 439.68 351.6C439.68 334.36 453.19 320.39 469.85 320.39C486.5 320.39 500.01 334.36 500.01 351.6" id="i8Rp6wn7i"></path><path d="M472.1 354.83C472.1 360.78 467.5 365.61 461.81 365.61C456.13 365.61 451.53 360.78 451.53 354.83C451.53 348.89 456.13 344.06 461.81 344.06C467.5 344.06 472.1 348.89 472.1 354.83" id="d3GJn5bx01"></path><path d="M482.73 234.62C486.13 276.16 471.17 328.52 449.31 351.6C448.07 336.56 438.21 216.25 436.98 201.21C458.84 178.14 479.32 193.1 482.73 234.62" id="dY1UHKXte"></path><path d="M156.08 234.62C152.67 276.16 167.63 328.52 189.5 351.6C190.73 336.56 200.59 216.25 201.83 201.21C179.96 178.14 159.48 193.1 156.08 234.62" id="dZfTEwnk"></path><path d="M435.39 153.77C414.23 122.68 368.31 123.22 332.83 154.97C340.49 166.23 401.8 256.32 409.46 267.58C444.94 235.82 456.55 184.87 435.39 153.77" id="b6av7CYBCC"></path><path d="M188.8 247.32C223.9 233.8 233.84 188.97 211.01 147.18C198.3 152.08 96.61 191.23 83.9 196.13C106.73 237.91 153.7 260.83 188.8 247.32" id="j8q0imk73e"></path><path d="M337.22 88.26C316.93 58.82 288.14 35.47 272.92 36.1C280.27 46.76 339.05 132.04 346.4 142.7C361.62 142.07 357.51 117.7 337.22 88.26" id="c4l2TQPZc"></path><path d="M241.05 180.67C250.68 215.32 244 252.87 226.13 264.55C222.64 252 194.74 151.62 191.25 139.07C209.12 127.4 231.41 146.02 241.05 180.67" id="biW4hWJbf"></path><path d="" id="nqf3YctEv"></path></defs><g><g><g><use xlink:href="#bbw3vFsb2" opacity="1" fill="#fff6be" fill-opacity="1"></use><g><use xlink:href="#bbw3vFsb2" opacity="1" fill-opacity="0" stroke="#000000" stroke-width="1" stroke-opacity="0"></use></g></g><g><use xlink:href="#blA0lapzs" opacity="1" fill="#c1272d" fill-opacity="1"></use><g><use xlink:href="#blA0lapzs" opacity="1" fill-opacity="0" stroke="#000000" stroke-width="1" stroke-opacity="0"></use></g></g><g><use xlink:href="#a2k6pT3B4P" opacity="1" fill="#9b1e27" fill-opacity="1"></use><g><use xlink:href="#a2k6pT3B4P" opacity="1" fill-opacity="0" stroke="#000000" stroke-width="1" stroke-opacity="0"></use></g></g><g><use xlink:href="#c2GffMdyTb" opacity="1" fill="#fcb19d" fill-opacity="1"></use><g><use xlink:href="#c2GffMdyTb" opacity="1" fill-opacity="0" stroke="#000000" stroke-width="1" stroke-opacity="0"></use></g></g><g><use xlink:href="#m2VEE282v8" opacity="1" fill="#ffcfc0" fill-opacity="1"></use><g><use xlink:href="#m2VEE282v8" opacity="1" fill-opacity="0" stroke="#000000" stroke-width="1" stroke-opacity="0"></use></g></g><g><use xlink:href="#a49T7ZCDr6" opacity="1" fill="#ffcfc0" fill-opacity="1"></use><g><use xlink:href="#a49T7ZCDr6" opacity="1" fill-opacity="0" stroke="#000000" stroke-width="1" stroke-opacity="0"></use></g></g><g><use xlink:href="#nQdcOn3vv" opacity="1" fill="#fcb19d" fill-opacity="1"></use><g><use xlink:href="#nQdcOn3vv" opacity="1" fill-opacity="0" stroke="#000000" stroke-width="1" stroke-opacity="0"></use></g></g><g><g><use xlink:href="#aGkSBOWR6" opacity="1" fill-opacity="0" stroke="#000000" stroke-width="1" stroke-opacity="1"></use></g></g><g><use xlink:href="#j2lQLoQIT0" opacity="1" fill="#9b5e0d" fill-opacity="1"></use><g><use xlink:href="#j2lQLoQIT0" opacity="1" fill-opacity="0" stroke="#000000" stroke-width="1" stroke-opacity="0"></use></g></g><g><use xlink:href="#a4B7ER6tCw" opacity="1" fill="#9b5e0d" fill-opacity="1"></use></g><g><use xlink:href="#b1serKr6yE" opacity="1" fill="#9b5e0d" fill-opacity="1"></use><g><use xlink:href="#b1serKr6yE" opacity="1" fill-opacity="0" stroke="#000000" stroke-width="1" stroke-opacity="0"></use></g></g><g><use xlink:href="#a1m1k9YFYs" opacity="1" fill="#9b5e0d" fill-opacity="1"></use><g><use xlink:href="#a1m1k9YFYs" opacity="1" fill-opacity="0" stroke="#000000" stroke-width="1" stroke-opacity="0"></use></g></g><g><use xlink:href="#chaDg47I" opacity="1" fill="#9b5e0d" fill-opacity="1"></use><g><use xlink:href="#chaDg47I" opacity="1" fill-opacity="0" stroke="#000000" stroke-width="1" stroke-opacity="0"></use></g></g><g><use xlink:href="#d823TQbJSG" opacity="1" fill="#504a41" fill-opacity="1"></use></g><g><use xlink:href="#a6oLL5tEef" opacity="1" fill="#9b5e0d" fill-opacity="1"></use><g><use xlink:href="#a6oLL5tEef" opacity="1" fill-opacity="0" stroke="#000000" stroke-width="1" stroke-opacity="0"></use></g></g><g><g><use xlink:href="#b4n1yrmA5" opacity="1" fill-opacity="0" stroke="#000000" stroke-width="1" stroke-opacity="1"></use></g></g><g><use xlink:href="#c24lcPpXH" opacity="1" fill="#9b5e0d" fill-opacity="1"></use></g><g><use xlink:href="#fuUg4jftF" opacity="1" fill="#9b5e0d" fill-opacity="1"></use><g><use xlink:href="#fuUg4jftF" opacity="1" fill-opacity="0" stroke="#000000" stroke-width="1" stroke-opacity="0"></use></g></g><g><use xlink:href="#e3YbPDTRo" opacity="1" fill="#504a41" fill-opacity="1"></use></g><g><use xlink:href="#a1CGdHru4f" opacity="1" fill="#9b5e0d" fill-opacity="1"></use><g><use xlink:href="#a1CGdHru4f" opacity="1" fill-opacity="0" stroke="#000000" stroke-width="1" stroke-opacity="0"></use></g></g><g><use xlink:href="#b6693ioI6o" opacity="1" fill="#040c54" fill-opacity="1"></use><g><use xlink:href="#b6693ioI6o" opacity="1" fill-opacity="0" stroke="#000000" stroke-width="1" stroke-opacity="0"></use></g></g><g><use xlink:href="#dgAmH4VwL" opacity="1" fill="#504a41" fill-opacity="1"></use></g><g><use xlink:href="#b2jLhtJklT" opacity="1" fill="#ea7898" fill-opacity="1"></use><g><use xlink:href="#b2jLhtJklT" opacity="1" fill-opacity="0" stroke="#000000" stroke-width="1" stroke-opacity="0"></use></g></g><g><use xlink:href="#a1VSxkKoG5" opacity="1" fill="#2a1d0a" fill-opacity="1"></use></g><g><use xlink:href="#i8Rp6wn7i" opacity="1" fill="#ffcfc0" fill-opacity="1"></use><g><use xlink:href="#i8Rp6wn7i" opacity="1" fill-opacity="0" stroke="#000000" stroke-width="1" stroke-opacity="0"></use></g></g><g><use xlink:href="#d3GJn5bx01" opacity="1" fill="#fcb19d" fill-opacity="1"></use><g><use xlink:href="#d3GJn5bx01" opacity="1" fill-opacity="0" stroke="#000000" stroke-width="1" stroke-opacity="0"></use></g></g><g><use xlink:href="#dY1UHKXte" opacity="1" fill="#9b5e0d" fill-opacity="1"></use><g><use xlink:href="#dY1UHKXte" opacity="1" fill-opacity="0" stroke="#000000" stroke-width="1" stroke-opacity="0"></use></g></g><g><use xlink:href="#dZfTEwnk" opacity="1" fill="#9b5e0d" fill-opacity="1"></use><g><use xlink:href="#dZfTEwnk" opacity="1" fill-opacity="0" stroke="#000000" stroke-width="1" stroke-opacity="0"></use></g></g><g><use xlink:href="#b6av7CYBCC" opacity="1" fill="#9b5e0d" fill-opacity="1"></use><g><use xlink:href="#b6av7CYBCC" opacity="1" fill-opacity="0" stroke="#000000" stroke-width="1" stroke-opacity="0"></use></g></g><g><use xlink:href="#j8q0imk73e" opacity="1" fill="#9b5e0d" fill-opacity="1"></use><g><use xlink:href="#j8q0imk73e" opacity="1" fill-opacity="0" stroke="#000000" stroke-width="1" stroke-opacity="0"></use></g></g><g><use xlink:href="#c4l2TQPZc" opacity="1" fill="#9b5e0d" fill-opacity="1"></use><g><use xlink:href="#c4l2TQPZc" opacity="1" fill-opacity="0" stroke="#000000" stroke-width="1" stroke-opacity="0"></use></g></g><g><use xlink:href="#biW4hWJbf" opacity="1" fill="#9b5e0d" fill-opacity="1"></use><g><use xlink:href="#biW4hWJbf" opacity="1" fill-opacity="0" stroke="#000000" stroke-width="1" stroke-opacity="0"></use></g></g><g><g><use xlink:href="#nqf3YctEv" opacity="1" fill-opacity="0" stroke="#000000" stroke-width="1" stroke-opacity="1"></use></g></g></g></g></svg>